<svg style="display: none;" xmlns="http://www.w3.org/2000/svg">
    <defs>
        <symbol id="sun" viewBox="0 0 24 24" fill="none" stroke="current">
            <path d="M12 17C14.7614 17 17 14.7614 17 12C17 9.23858 14.7614 7 12 7C9.23858 7 7 9.23858 7 12C7 14.7614 9.23858 17 12 17Z" stroke-width="2" stroke-linecap="round" stroke-linejoin="round"/>
            <path d="M12 1V3" stroke-width="2" stroke-linecap="round" stroke-linejoin="round"/>
            <path d="M12 21V23" stroke-width="2" stroke-linecap="round" stroke-linejoin="round"/>
            <path d="M4.22021 4.21997L5.64021 5.63997" stroke-width="2" stroke-linecap="round" stroke-linejoin="round"/>
            <path d="M18.3599 18.36L19.7799 19.78" stroke-width="2" stroke-linecap="round" stroke-linejoin="round"/>
            <path d="M1 12H3" stroke-width="2" stroke-linecap="round" stroke-linejoin="round"/>
            <path d="M21 12H23" stroke-width="2" stroke-linecap="round" stroke-linejoin="round"/>
            <path d="M4.22021 19.78L5.64021 18.36" stroke-width="2" stroke-linecap="round" stroke-linejoin="round"/>
            <path d="M18.3599 5.63997L19.7799 4.21997" stroke-width="2" stroke-linecap="round" stroke-linejoin="round"/>
        </symbol>
        <symbol id="moon" viewBox="0 0 24 24" fill="none" stroke="current">
            <path d="M20.9999 12.79C20.8426 14.4922 20.2038 16.1144 19.1581 17.4668C18.1125 18.8192 16.7034 19.8458 15.0956 20.4265C13.4878 21.0073 11.7479 21.1181 10.0794 20.7461C8.41092 20.3741 6.8829 19.5345 5.67413 18.3258C4.46536 17.117 3.62584 15.589 3.25381 13.9205C2.88178 12.252 2.99262 10.5121 3.57336 8.9043C4.15411 7.29651 5.18073 5.88737 6.53311 4.84175C7.8855 3.79614 9.5077 3.15731 11.2099 3C10.2133 4.34827 9.73375 6.00945 9.85843 7.68141C9.98312 9.35338 10.7038 10.9251 11.8893 12.1106C13.0748 13.2961 14.6465 14.0168 16.3185 14.1415C17.9905 14.2662 19.6516 13.7866 20.9999 12.79V12.79Z" stroke-width="2" stroke-linecap="round" stroke-linejoin="round"/>
        </symbol>
        <symbol id="edit" width="20" height="20" viewBox="0 0 20 20" fill="current">
            <path d="M0.83545 15.5571L0 20L4.44291 19.1645L16.4621 7.1453L12.8547 3.53784L0.83545 15.5571ZM3.96495 18.2589L1.22608 18.7739L1.74108 16.035L12.8547 4.92143L15.0785 7.1453L3.96495 18.2589Z" fill="current"/>
            <path d="M16.3925 0L13.6853 2.70724L17.2927 6.31463L19.9999 3.60739L16.3925 0ZM15.0689 2.70724L16.3925 1.38359L18.6163 3.60739L17.2927 4.93104L15.0689 2.70724Z" fill="current"/>
        </symbol>
        <symbol id="exit" fill="none" stroke="current" height="200px" width="200px" viewBox="0 0 384.971 384.971">
            <g>
                <line class="cls-1" x1="15.92" x2="28.92" y1="16" y2="16"/>
                <path d="M23.93,25v3h-16V4h16V7h2V3a1,1,0,0,0-1-1h-18a1,1,0,0,0-1,1V29a1,1,0,0,0,1,1h18a1,1,0,0,0,1-1V25Z"/><line class="cls-1" x1="28.92" x2="24.92" y1="16" y2="20"/>
                <line class="cls-1" x1="28.92" x2="24.92" y1="16" y2="12"/>
                <line class="cls-1" x1="24.92" x2="24.92" y1="8.09" y2="6.09"/>
                <line class="cls-1" x1="24.92" x2="24.92" y1="26" y2="24"/>
            </g>
        </symbol>
        <symbol id="reply" fill="current" viewBox="0 0 32 32">
            <g>
                <path d="M15.3,7.1V6c0-0.8-0.4-1.5-1.1-1.8c-0.6-0.3-1.4-0.2-2,0.3l-6.5,6C5.3,10.8,5,11.4,5,12s0.3,1.2,0.7,1.5l6.6,6
		c0.6,0.4,1.3,0.5,1.9,0.2c0.7-0.3,1.1-1,1.1-1.8v-1c6.3,0.1,12.1,4.1,14.7,10.4c0.2,0.4,0.5,0.6,0.9,0.6c0.1,0,0.1,0,0.2,0
		c0.5-0.1,0.8-0.5,0.8-1C32,16.7,24.8,8.2,15.3,7.1z"/>
                <path d="M2,12.1c0,0,0-0.1,0-0.2l6.2-6.2c0.4-0.4,0.4-1,0-1.4c-0.4-0.4-1-0.4-1.4,0l-6.2,6.1C0.3,10.8,0,11.4,0,12s0.3,1.2,0.6,1.5
		l6.2,6.2C7.1,19.9,7.3,20,7.6,20c0.3,0,0.5-0.1,0.7-0.3c0.4-0.4,0.4-1,0-1.4L2,12.1z"/>
            </g>
        </symbol>
        <symbol id="delete" fill="current" viewBox="0 0 1536 1536">
            <path d="M960 160h-291.2a160 160 0 0 0-313.6 0H64a32 32 0 0 0 0 64h896a32 32 0 0 0 0-64zM512 96a96 96 0 0 1 90.24 64h-180.48A96 96 0 0 1 512 96zM844.16 290.56a32 32 0 0 0-34.88 6.72A32 32 0 0 0 800 320a32 32 0 1 0 64 0 33.6 33.6 0 0 0-9.28-22.72 32 32 0 0 0-10.56-6.72zM832 416a32 32 0 0 0-32 32v96a32 32 0 0 0 64 0v-96a32 32 0 0 0-32-32zM832 640a32 32 0 0 0-32 32v224a32 32 0 0 1-32 32H256a32 32 0 0 1-32-32V320a32 32 0 0 0-64 0v576a96 96 0 0 0 96 96h512a96 96 0 0 0 96-96v-224a32 32 0 0 0-32-32z" fill="current" />
            <path d="M384 768V352a32 32 0 0 0-64 0v416a32 32 0 0 0 64 0zM544 768V352a32 32 0 0 0-64 0v416a32 32 0 0 0 64 0zM704 768V352a32 32 0 0 0-64 0v416a32 32 0 0 0 64 0z" fill="current" />
        </symbol>
        <symbol id="close" fill="current" viewBox="0 0 50 50" width="24px" height="24px">
            <path d="M 9.15625 6.3125 L 6.3125 9.15625 L 22.15625 25 L 6.21875 40.96875 L 9.03125 43.78125 L 25 27.84375 L 40.9375 43.78125 L 43.78125 40.9375 L 27.84375 25 L 43.6875 9.15625 L 40.84375 6.3125 L 25 22.15625 Z"/>
        </symbol>
        <symbol id="happyFace" fill="current" viewBox="0 0 640 512">
            <path d="M516.1 325.5c1 3 2.1 6 3.3 8.9c3.3 8.1 8.4 18.5 16.5 26.6c3.9 3.9 8.2 7.4 12.7 10.3C506.4 454.8 419.9 512 320 512s-186.4-57.2-228.6-140.6c4.5-2.9 8.7-6.3 12.7-10.3c8.1-8.1 13.2-18.6 16.5-26.6c1.2-2.9 2.3-5.9 3.3-8.9C152.5 406.2 229.5 464 320 464s167.5-57.8 196.1-138.5zM320 48c-101.4 0-185.8 72.5-204.3 168.5c-6.7-3.1-14.3-4.3-22.3-3.1c-6.8 .9-16.2 2.4-26.6 4.4C85.3 94.5 191.6 0 320 0S554.7 94.5 573.2 217.7c-10.3-2-19.8-3.5-26.6-4.4c-8-1.2-15.7 .1-22.3 3.1C505.8 120.5 421.4 48 320 48zM78.5 341.1C60 356.7 32 355.5 14.3 337.7c-18.7-18.7-19.1-48.8-.7-67.2c8.6-8.6 30.1-15.1 50.5-19.6c13-2.8 25.5-4.8 33.9-6c5.4-.8 9.9 3.7 9 9c-3.1 21.5-11.4 70.2-25.5 84.4c-.9 1-1.9 1.8-2.9 2.7zm483 0c-.8-.6-1.5-1.3-2.3-2c-.2-.2-.5-.4-.7-.7c-14.1-14.1-22.5-62.9-25.5-84.4c-.8-5.4 3.7-9.9 9-9c1 .1 2.2 .3 3.3 .5c8.2 1.2 19.2 3 30.6 5.5c20.4 4.4 41.9 10.9 50.5 19.6c18.4 18.4 18 48.5-.7 67.2c-17.7 17.7-45.7 19-64.2 3.4zM439 336.5C414.4 374.6 370.3 400 319.9 400s-94.5-25.4-119.1-63.5c-10.4-16.1 6.8-32.5 25.5-28.1c28.9 6.8 60.5 10.5 93.6 10.5s64.7-3.7 93.6-10.5c18.7-4.4 35.9 12 25.5 28.1zM281.6 228.8l0 0-.2-.2c-.2-.2-.4-.5-.7-.9c-.6-.8-1.6-2-2.8-3.4c-2.5-2.8-6-6.6-10.2-10.3c-8.8-7.8-18.8-14-27.7-14s-18.9 6.2-27.7 14c-4.2 3.7-7.7 7.5-10.2 10.3c-1.2 1.4-2.2 2.6-2.8 3.4c-.3 .4-.6 .7-.7 .9l-.2 .2 0 0 0 0 0 0c-2.1 2.8-5.7 3.9-8.9 2.8s-5.5-4.1-5.5-7.6c0-17.9 6.7-35.6 16.6-48.8c9.8-13 23.9-23.2 39.4-23.2s29.6 10.2 39.4 23.2c9.9 13.2 16.6 30.9 16.6 48.8c0 3.4-2.2 6.5-5.5 7.6s-6.9 0-8.9-2.8l0 0 0 0 0 0zm160 0l0 0 0 0-.2-.2c-.2-.2-.4-.5-.7-.9c-.6-.8-1.6-2-2.8-3.4c-2.5-2.8-6-6.6-10.2-10.3c-8.8-7.8-18.8-14-27.7-14s-18.9 6.2-27.7 14c-4.2 3.7-7.7 7.5-10.2 10.3c-1.2 1.4-2.2 2.6-2.8 3.4c-.3 .4-.6 .7-.7 .9l-.2 .2 0 0 0 0 0 0c-2.1 2.8-5.7 3.9-8.9 2.8s-5.5-4.1-5.5-7.6c0-17.9 6.7-35.6 16.6-48.8c9.8-13 23.9-23.2 39.4-23.2s29.6 10.2 39.4 23.2c9.9 13.2 16.6 30.9 16.6 48.8c0 3.4-2.2 6.5-5.5 7.6s-6.9 0-8.9-2.8l0 0 0 0z"/>
        </symbol>
        <symbol id="sadFace" fill="current" viewBox="0 0 512 512">
            <path d="M175.9 448c-35-.1-65.5-22.6-76-54.6C67.6 356.8 48 308.7 48 256C48 141.1 141.1 48 256 48s208 93.1 208 208s-93.1 208-208 208c-28.4 0-55.5-5.7-80.1-16zM0 256a256 256 0 1 0 512 0A256 256 0 1 0 0 256zM128 369c0 26 21.5 47 48 47s48-21 48-47c0-20-28.4-60.4-41.6-77.7c-3.2-4.4-9.6-4.4-12.8 0C156.6 308.6 128 349 128 369zm128-65c-13.3 0-24 10.7-24 24s10.7 24 24 24c30.7 0 58.7 11.5 80 30.6c9.9 8.8 25 8 33.9-1.9s8-25-1.9-33.9C338.3 320.2 299 304 256 304zm47.6-96a32 32 0 1 0 64 0 32 32 0 1 0 -64 0zm-128 32a32 32 0 1 0 0-64 32 32 0 1 0 0 64z"/>
        </symbol>
        <symbol id="angryFace" viewBox="0 0 512 512">
            <path d="M256 48a208 208 0 1 1 0 416 208 208 0 1 1 0-416zm0 464A256 256 0 1 0 256 0a256 256 0 1 0 0 512zm72.4-118.5c9.7-9 10.2-24.2 1.2-33.9C315.3 344.3 290.6 328 256 328s-59.3 16.3-73.5 31.6c-9 9.7-8.5 24.9 1.2 33.9s24.9 8.5 33.9-1.2c7.4-7.9 20-16.4 38.5-16.4s31.1 8.5 38.5 16.4c9 9.7 24.2 10.2 33.9 1.2zM176.4 272c17.7 0 32-14.3 32-32c0-1.5-.1-3-.3-4.4l10.9 3.6c8.4 2.8 17.4-1.7 20.2-10.1s-1.7-17.4-10.1-20.2l-96-32c-8.4-2.8-17.4 1.7-20.2 10.1s1.7 17.4 10.1 20.2l30.7 10.2c-5.8 5.8-9.3 13.8-9.3 22.6c0 17.7 14.3 32 32 32zm192-32c0-8.9-3.6-17-9.5-22.8l30.2-10.1c8.4-2.8 12.9-11.9 10.1-20.2s-11.9-12.9-20.2-10.1l-96 32c-8.4 2.8-12.9 11.9-10.1 20.2s11.9 12.9 20.2 10.1l11.7-3.9c-.2 1.5-.3 3.1-.3 4.7c0 17.7 14.3 32 32 32s32-14.3 32-32z"/>
        </symbol>
        <symbol id="like" fill="current" viewBox="0 0 512 512">
            <path d="M323.8 34.8c-38.2-10.9-78.1 11.2-89 49.4l-5.7 20c-3.7 13-10.4 25-19.5 35l-51.3 56.4c-8.9 9.8-8.2 25 1.6 33.9s25 8.2 33.9-1.6l51.3-56.4c14.1-15.5 24.4-34 30.1-54.1l5.7-20c3.6-12.7 16.9-20.1 29.7-16.5s20.1 16.9 16.5 29.7l-5.7 20c-5.7 19.9-14.7 38.7-26.6 55.5c-5.2 7.3-5.8 16.9-1.7 24.9s12.3 13 21.3 13L448 224c8.8 0 16 7.2 16 16c0 6.8-4.3 12.7-10.4 15c-7.4 2.8-13 9-14.9 16.7s.1 15.8 5.3 21.7c2.5 2.8 4 6.5 4 10.6c0 7.8-5.6 14.3-13 15.7c-8.2 1.6-15.1 7.3-18 15.1s-1.6 16.7 3.6 23.3c2.1 2.7 3.4 6.1 3.4 9.9c0 6.7-4.2 12.6-10.2 14.9c-11.5 4.5-17.7 16.9-14.4 28.8c.4 1.3 .6 2.8 .6 4.3c0 8.8-7.2 16-16 16H286.5c-12.6 0-25-3.7-35.5-10.7l-61.7-41.1c-11-7.4-25.9-4.4-33.3 6.7s-4.4 25.9 6.7 33.3l61.7 41.1c18.4 12.3 40 18.8 62.1 18.8H384c34.7 0 62.9-27.6 64-62c14.6-11.7 24-29.7 24-50c0-4.5-.5-8.8-1.3-13c15.4-11.7 25.3-30.2 25.3-51c0-6.5-1-12.8-2.8-18.7C504.8 273.7 512 257.7 512 240c0-35.3-28.6-64-64-64l-92.3 0c4.7-10.4 8.7-21.2 11.8-32.2l5.7-20c10.9-38.2-11.2-78.1-49.4-89zM32 192c-17.7 0-32 14.3-32 32V448c0 17.7 14.3 32 32 32H96c17.7 0 32-14.3 32-32V224c0-17.7-14.3-32-32-32H32z"/>
        </symbol>
        <symbol id="dislike" fill="current" viewBox="0 0 512 512">
            <path d="M323.8 477.2c-38.2 10.9-78.1-11.2-89-49.4l-5.7-20c-3.7-13-10.4-25-19.5-35l-51.3-56.4c-8.9-9.8-8.2-25 1.6-33.9s25-8.2 33.9 1.6l51.3 56.4c14.1 15.5 24.4 34 30.1 54.1l5.7 20c3.6 12.7 16.9 20.1 29.7 16.5s20.1-16.9 16.5-29.7l-5.7-20c-5.7-19.9-14.7-38.7-26.6-55.5c-5.2-7.3-5.8-16.9-1.7-24.9s12.3-13 21.3-13L448 288c8.8 0 16-7.2 16-16c0-6.8-4.3-12.7-10.4-15c-7.4-2.8-13-9-14.9-16.7s.1-15.8 5.3-21.7c2.5-2.8 4-6.5 4-10.6c0-7.8-5.6-14.3-13-15.7c-8.2-1.6-15.1-7.3-18-15.2s-1.6-16.7 3.6-23.3c2.1-2.7 3.4-6.1 3.4-9.9c0-6.7-4.2-12.6-10.2-14.9c-11.5-4.5-17.7-16.9-14.4-28.8c.4-1.3 .6-2.8 .6-4.3c0-8.8-7.2-16-16-16H286.5c-12.6 0-25 3.7-35.5 10.7l-61.7 41.1c-11 7.4-25.9 4.4-33.3-6.7s-4.4-25.9 6.7-33.3l61.7-41.1c18.4-12.3 40-18.8 62.1-18.8H384c34.7 0 62.9 27.6 64 62c14.6 11.7 24 29.7 24 50c0 4.5-.5 8.8-1.3 13c15.4 11.7 25.3 30.2 25.3 51c0 6.5-1 12.8-2.8 18.7C504.8 238.3 512 254.3 512 272c0 35.3-28.6 64-64 64l-92.3 0c4.7 10.4 8.7 21.2 11.8 32.2l5.7 20c10.9 38.2-11.2 78.1-49.4 89zM32 384c-17.7 0-32-14.3-32-32V128c0-17.7 14.3-32 32-32H96c17.7 0 32 14.3 32 32V352c0 17.7-14.3 32-32 32H32z"/>
        </symbol>
    </defs>
</svg>
