<svg style="display: none;" xmlns="http://www.w3.org/2000/svg">
    <defs>
        <symbol id="sun" viewBox="0 0 24 24" fill="none" stroke="current">
            <path d="M12 17C14.7614 17 17 14.7614 17 12C17 9.23858 14.7614 7 12 7C9.23858 7 7 9.23858 7 12C7 14.7614 9.23858 17 12 17Z" stroke-width="2" stroke-linecap="round" stroke-linejoin="round"/>
            <path d="M12 1V3" stroke-width="2" stroke-linecap="round" stroke-linejoin="round"/>
            <path d="M12 21V23" stroke-width="2" stroke-linecap="round" stroke-linejoin="round"/>
            <path d="M4.22021 4.21997L5.64021 5.63997" stroke-width="2" stroke-linecap="round" stroke-linejoin="round"/>
            <path d="M18.3599 18.36L19.7799 19.78" stroke-width="2" stroke-linecap="round" stroke-linejoin="round"/>
            <path d="M1 12H3" stroke-width="2" stroke-linecap="round" stroke-linejoin="round"/>
            <path d="M21 12H23" stroke-width="2" stroke-linecap="round" stroke-linejoin="round"/>
            <path d="M4.22021 19.78L5.64021 18.36" stroke-width="2" stroke-linecap="round" stroke-linejoin="round"/>
            <path d="M18.3599 5.63997L19.7799 4.21997" stroke-width="2" stroke-linecap="round" stroke-linejoin="round"/>
        </symbol>
        <symbol id="moon" viewBox="0 0 24 24" fill="none" stroke="current">
            <path d="M20.9999 12.79C20.8426 14.4922 20.2038 16.1144 19.1581 17.4668C18.1125 18.8192 16.7034 19.8458 15.0956 20.4265C13.4878 21.0073 11.7479 21.1181 10.0794 20.7461C8.41092 20.3741 6.8829 19.5345 5.67413 18.3258C4.46536 17.117 3.62584 15.589 3.25381 13.9205C2.88178 12.252 2.99262 10.5121 3.57336 8.9043C4.15411 7.29651 5.18073 5.88737 6.53311 4.84175C7.8855 3.79614 9.5077 3.15731 11.2099 3C10.2133 4.34827 9.73375 6.00945 9.85843 7.68141C9.98312 9.35338 10.7038 10.9251 11.8893 12.1106C13.0748 13.2961 14.6465 14.0168 16.3185 14.1415C17.9905 14.2662 19.6516 13.7866 20.9999 12.79V12.79Z" stroke-width="2" stroke-linecap="round" stroke-linejoin="round"/>
        </symbol>
        <symbol id="edit" width="20" height="20" viewBox="0 0 20 20" fill="current">
            <path d="M0.83545 15.5571L0 20L4.44291 19.1645L16.4621 7.1453L12.8547 3.53784L0.83545 15.5571ZM3.96495 18.2589L1.22608 18.7739L1.74108 16.035L12.8547 4.92143L15.0785 7.1453L3.96495 18.2589Z" fill="current"/>
            <path d="M16.3925 0L13.6853 2.70724L17.2927 6.31463L19.9999 3.60739L16.3925 0ZM15.0689 2.70724L16.3925 1.38359L18.6163 3.60739L17.2927 4.93104L15.0689 2.70724Z" fill="current"/>
        </symbol>
        <symbol id="exit" fill="none" stroke="current" height="200px" width="200px" viewBox="0 0 384.971 384.971">
            <g>
                <line class="cls-1" x1="15.92" x2="28.92" y1="16" y2="16"/>
                <path d="M23.93,25v3h-16V4h16V7h2V3a1,1,0,0,0-1-1h-18a1,1,0,0,0-1,1V29a1,1,0,0,0,1,1h18a1,1,0,0,0,1-1V25Z"/><line class="cls-1" x1="28.92" x2="24.92" y1="16" y2="20"/>
                <line class="cls-1" x1="28.92" x2="24.92" y1="16" y2="12"/>
                <line class="cls-1" x1="24.92" x2="24.92" y1="8.09" y2="6.09"/>
                <line class="cls-1" x1="24.92" x2="24.92" y1="26" y2="24"/>
            </g>
        </symbol>
        <symbol id="reply" fill="current" viewBox="0 0 32 32">
            <g>
                <path d="M15.3,7.1V6c0-0.8-0.4-1.5-1.1-1.8c-0.6-0.3-1.4-0.2-2,0.3l-6.5,6C5.3,10.8,5,11.4,5,12s0.3,1.2,0.7,1.5l6.6,6
		c0.6,0.4,1.3,0.5,1.9,0.2c0.7-0.3,1.1-1,1.1-1.8v-1c6.3,0.1,12.1,4.1,14.7,10.4c0.2,0.4,0.5,0.6,0.9,0.6c0.1,0,0.1,0,0.2,0
		c0.5-0.1,0.8-0.5,0.8-1C32,16.7,24.8,8.2,15.3,7.1z"/>
                <path d="M2,12.1c0,0,0-0.1,0-0.2l6.2-6.2c0.4-0.4,0.4-1,0-1.4c-0.4-0.4-1-0.4-1.4,0l-6.2,6.1C0.3,10.8,0,11.4,0,12s0.3,1.2,0.6,1.5
		l6.2,6.2C7.1,19.9,7.3,20,7.6,20c0.3,0,0.5-0.1,0.7-0.3c0.4-0.4,0.4-1,0-1.4L2,12.1z"/>
            </g>
        </symbol>
        <symbol id="delete" fill="current" viewBox="0 0 1536 1536">
            <path d="M960 160h-291.2a160 160 0 0 0-313.6 0H64a32 32 0 0 0 0 64h896a32 32 0 0 0 0-64zM512 96a96 96 0 0 1 90.24 64h-180.48A96 96 0 0 1 512 96zM844.16 290.56a32 32 0 0 0-34.88 6.72A32 32 0 0 0 800 320a32 32 0 1 0 64 0 33.6 33.6 0 0 0-9.28-22.72 32 32 0 0 0-10.56-6.72zM832 416a32 32 0 0 0-32 32v96a32 32 0 0 0 64 0v-96a32 32 0 0 0-32-32zM832 640a32 32 0 0 0-32 32v224a32 32 0 0 1-32 32H256a32 32 0 0 1-32-32V320a32 32 0 0 0-64 0v576a96 96 0 0 0 96 96h512a96 96 0 0 0 96-96v-224a32 32 0 0 0-32-32z" fill="current" />
            <path d="M384 768V352a32 32 0 0 0-64 0v416a32 32 0 0 0 64 0zM544 768V352a32 32 0 0 0-64 0v416a32 32 0 0 0 64 0zM704 768V352a32 32 0 0 0-64 0v416a32 32 0 0 0 64 0z" fill="current" />
        </symbol>
        <symbol id="close" fill="current" viewBox="0 0 50 50" width="24px" height="24px">
            <path d="M 9.15625 6.3125 L 6.3125 9.15625 L 22.15625 25 L 6.21875 40.96875 L 9.03125 43.78125 L 25 27.84375 L 40.9375 43.78125 L 43.78125 40.9375 L 27.84375 25 L 43.6875 9.15625 L 40.84375 6.3125 L 25 22.15625 Z"/>
        </symbol>
        <symbol id="soundon" fill="current" viewBox="0 0 16 16">
           <path d="M11.536 14.01A8.473 8.473 0 0 0 14.026 8a8.473 8.473 0 0 0-2.49-6.01l-.708.707A7.476 7.476 0 0 1 13.025 8c0 2.071-.84 3.946-2.197 5.303l.708.707z"/>
           <path d="M10.121 12.596A6.48 6.48 0 0 0 12.025 8a6.48 6.48 0 0 0-1.904-4.596l-.707.707A5.483 5.483 0 0 1 11.025 8a5.483 5.483 0 0 1-1.61 3.89l.706.706z"/>
           <path d="M8.707 11.182A4.486 4.486 0 0 0 10.025 8a4.486 4.486 0 0 0-1.318-3.182L8 5.525A3.489 3.489 0 0 1 9.025 8 3.49 3.49 0 0 1 8 10.475l.707.707zM6.717 3.55A.5.5 0 0 1 7 4v8a.5.5 0 0 1-.812.39L3.825 10.5H1.5A.5.5 0 0 1 1 10V6a.5.5 0 0 1 .5-.5h2.325l2.363-1.89a.5.5 0 0 1 .529-.06z"/>
        </symbol>
        <symbol id="soundoff" fill="current" viewBox="0 0 16 16">
            <path d="M6.717 3.55A.5.5 0 0 1 7 4v8a.5.5 0 0 1-.812.39L3.825 10.5H1.5A.5.5 0 0 1 1 10V6a.5.5 0 0 1 .5-.5h2.325l2.363-1.89a.5.5 0 0 1 .529-.06zm7.137 2.096a.5.5 0 0 1 0 .708L12.207 8l1.647 1.646a.5.5 0 0 1-.708.708L11.5 8.707l-1.646 1.647a.5.5 0 0 1-.708-.708L10.793 8 9.146 6.354a.5.5 0 1 1 .708-.708L11.5 7.293l1.646-1.647a.5.5 0 0 1 .708 0z"/>
        </symbol>
    </defs>
</svg>
